# xmcd
#
# Track frame offsets:
#	150
#	19238
#	32596
#	54983
#	71386
#	90514
#	112970
#	133263
#	152252
#	172761
#	196352
#	208689
#	224397
#
# Disc length: 3287 seconds
#
# Revision: 1
# Processed by: cddbd v1.5.2PL0 Copyright (c) Steve Scherf et al.
# Submitted via: audiograbber 1.83.01
#
DISCID=a60cd50d
DTITLE=Various Artist - Ruf Records 20 Years Anniversary
DYEAR=2014
DGENRE=Blues
TTITLE0=Thorbjørn Risager - If You Wanna Leave
TTITLE1=Dana Fuchs - Bliss Avenue
TTITLE2=Royal Southern Brotherhood - Rock And Roll
TTITLE3=Girls With Guitars - Bitch
TTITLE4=Laurence Jones - Temptation
TTITLE5=Meena - Try Me
TTITLE6=Mike Zito - Voices In Dallas
TTITLE7=Samantha Fish - Down In The Swamp
TTITLE8=Spin Doctors - Some Other Man Instead
TTITLE9=Joanne Shaw Taylor - Can't Keep Living Like This
TTITLE10=Aynsley Lister and Ian Parker - Blues Caravan
TTITLE11=Eliana Cargnelutti - Stranded In Memphis
TTITLE12=Savoy Brown - Nuthin' Like The Blues
EXTD=
EXTT0=
EXTT1=
EXTT2=
EXTT3=
EXTT4=
EXTT5=
EXTT6=
EXTT7=
EXTT8=
EXTT9=
EXTT10=
EXTT11=
EXTT12=
PLAYORDER=
